<svg xmlns="http://www.w3.org/2000/svg" xmlns:xlink="http://www.w3.org/1999/xlink" width="500" zoomAndPan="magnify" viewBox="0 0 375 374.999991" height="500" preserveAspectRatio="xMidYMid meet" version="1.0"><defs><g/><clipPath id="f37787a025"><path d="M -37.621094 -10.136719 L 433.609375 -10.136719 C 438.183594 -10.136719 442.570312 -8.316406 445.804688 -5.082031 C 449.039062 -1.847656 450.859375 2.539062 450.859375 7.113281 L 450.859375 424.21875 C 450.859375 428.792969 449.039062 433.179688 445.804688 436.417969 C 442.570312 439.652344 438.183594 441.46875 433.609375 441.46875 L -37.621094 441.46875 C -42.195312 441.46875 -46.582031 439.652344 -49.820312 436.417969 C -53.054688 433.179688 -54.871094 428.792969 -54.871094 424.21875 L -54.871094 7.113281 C -54.871094 2.539062 -53.054688 -1.847656 -49.820312 -5.082031 C -46.582031 -8.316406 -42.195312 -10.136719 -37.621094 -10.136719 Z M -37.621094 -10.136719 " clip-rule="nonzero"/></clipPath><clipPath id="28a248b0e4"><path d="M 0 0 L 375 0 L 375 375 L 0 375 Z M 0 0 " clip-rule="nonzero"/></clipPath><clipPath id="ba119af4ce"><path d="M -37.621094 -10.136719 L 433.609375 -10.136719 C 438.183594 -10.136719 442.570312 -8.316406 445.804688 -5.082031 C 449.039062 -1.847656 450.859375 2.539062 450.859375 7.113281 L 450.859375 424.21875 C 450.859375 428.792969 449.039062 433.179688 445.804688 436.417969 C 442.570312 439.652344 438.183594 441.46875 433.609375 441.46875 L -37.621094 441.46875 C -42.195312 441.46875 -46.582031 439.652344 -49.820312 436.417969 C -53.054688 433.179688 -54.871094 428.792969 -54.871094 424.21875 L -54.871094 7.113281 C -54.871094 2.539062 -53.054688 -1.847656 -49.820312 -5.082031 C -46.582031 -8.316406 -42.195312 -10.136719 -37.621094 -10.136719 Z M -37.621094 -10.136719 " clip-rule="nonzero"/></clipPath><clipPath id="027ece2463"><rect x="0" width="375" y="0" height="375"/></clipPath></defs><rect x="-37.5" width="450" fill="#ffffff" y="-37.499999" height="449.999989" fill-opacity="1"/><rect x="-37.5" width="450" fill="#ffffff" y="-37.499999" height="449.999989" fill-opacity="1"/><g clip-path="url(#f37787a025)"><g transform="matrix(1, 0, 0, 1, 0, 0)"><g clip-path="url(#027ece2463)"><g clip-path="url(#28a248b0e4)"><g clip-path="url(#ba119af4ce)"><rect x="-82.5" width="540" fill="#0a0a0a" height="539.999987" y="-82.499998" fill-opacity="1"/></g></g></g></g></g><g fill="#ff0000" fill-opacity="1"><g transform="translate(33.625531, 245.99852)"><g><path d="M 41.734375 0 L 17.25 0 C 15.164062 0 13.660156 -0.460938 12.734375 -1.390625 C 11.804688 -2.328125 11.34375 -3.835938 11.34375 -5.921875 L 11.34375 -112.40625 C 11.34375 -114.476562 11.804688 -115.976562 12.734375 -116.90625 C 13.660156 -117.84375 15.164062 -118.3125 17.25 -118.3125 L 43.71875 -118.3125 C 45.46875 -118.3125 46.914062 -117.925781 48.0625 -117.15625 C 49.21875 -116.394531 50.285156 -115.140625 51.265625 -113.390625 L 66.0625 -86.59375 C 66.601562 -85.613281 67.066406 -84.90625 67.453125 -84.46875 C 67.835938 -84.03125 68.359375 -83.8125 69.015625 -83.8125 L 70.5 -83.8125 C 71.15625 -83.8125 71.675781 -84.03125 72.0625 -84.46875 C 72.445312 -84.90625 72.910156 -85.613281 73.453125 -86.59375 L 88.078125 -113.390625 C 89.066406 -115.140625 90.132812 -116.394531 91.28125 -117.15625 C 92.4375 -117.925781 93.890625 -118.3125 95.640625 -118.3125 L 122.265625 -118.3125 C 124.335938 -118.3125 125.835938 -117.84375 126.765625 -116.90625 C 127.703125 -115.976562 128.171875 -114.476562 128.171875 -112.40625 L 128.171875 -5.921875 C 128.171875 -3.835938 127.703125 -2.328125 126.765625 -1.390625 C 125.835938 -0.460938 124.335938 0 122.265625 0 L 96.953125 0 C 94.867188 0 93.359375 -0.460938 92.421875 -1.390625 C 91.492188 -2.328125 91.03125 -3.835938 91.03125 -5.921875 L 91.03125 -63.765625 L 81.34375 -45.84375 C 80.351562 -43.976562 79.171875 -42.632812 77.796875 -41.8125 C 76.429688 -41 74.710938 -40.59375 72.640625 -40.59375 L 66.0625 -40.59375 C 63.976562 -40.59375 62.25 -41 60.875 -41.8125 C 59.507812 -42.632812 58.332031 -43.976562 57.34375 -45.84375 L 47.65625 -63.765625 L 47.65625 -5.921875 C 47.65625 -3.835938 47.1875 -2.328125 46.25 -1.390625 C 45.320312 -0.460938 43.816406 0 41.734375 0 Z M 41.734375 0 "/></g></g></g><g fill="#00ffff" fill-opacity="1"><g transform="translate(27.463175, 245.99852)"><g><path d="M 41.734375 0 L 17.25 0 C 15.164062 0 13.660156 -0.460938 12.734375 -1.390625 C 11.804688 -2.328125 11.34375 -3.835938 11.34375 -5.921875 L 11.34375 -112.40625 C 11.34375 -114.476562 11.804688 -115.976562 12.734375 -116.90625 C 13.660156 -117.84375 15.164062 -118.3125 17.25 -118.3125 L 43.71875 -118.3125 C 45.46875 -118.3125 46.914062 -117.925781 48.0625 -117.15625 C 49.21875 -116.394531 50.285156 -115.140625 51.265625 -113.390625 L 66.0625 -86.59375 C 66.601562 -85.613281 67.066406 -84.90625 67.453125 -84.46875 C 67.835938 -84.03125 68.359375 -83.8125 69.015625 -83.8125 L 70.5 -83.8125 C 71.15625 -83.8125 71.675781 -84.03125 72.0625 -84.46875 C 72.445312 -84.90625 72.910156 -85.613281 73.453125 -86.59375 L 88.078125 -113.390625 C 89.066406 -115.140625 90.132812 -116.394531 91.28125 -117.15625 C 92.4375 -117.925781 93.890625 -118.3125 95.640625 -118.3125 L 122.265625 -118.3125 C 124.335938 -118.3125 125.835938 -117.84375 126.765625 -116.90625 C 127.703125 -115.976562 128.171875 -114.476562 128.171875 -112.40625 L 128.171875 -5.921875 C 128.171875 -3.835938 127.703125 -2.328125 126.765625 -1.390625 C 125.835938 -0.460938 124.335938 0 122.265625 0 L 96.953125 0 C 94.867188 0 93.359375 -0.460938 92.421875 -1.390625 C 91.492188 -2.328125 91.03125 -3.835938 91.03125 -5.921875 L 91.03125 -63.765625 L 81.34375 -45.84375 C 80.351562 -43.976562 79.171875 -42.632812 77.796875 -41.8125 C 76.429688 -41 74.710938 -40.59375 72.640625 -40.59375 L 66.0625 -40.59375 C 63.976562 -40.59375 62.25 -41 60.875 -41.8125 C 59.507812 -42.632812 58.332031 -43.976562 57.34375 -45.84375 L 47.65625 -63.765625 L 47.65625 -5.921875 C 47.65625 -3.835938 47.1875 -2.328125 46.25 -1.390625 C 45.320312 -0.460938 43.816406 0 41.734375 0 Z M 41.734375 0 "/></g></g></g><g fill="#39c638" fill-opacity="1"><g transform="translate(30.544353, 245.99852)"><g><path d="M 41.734375 0 L 17.25 0 C 15.164062 0 13.660156 -0.460938 12.734375 -1.390625 C 11.804688 -2.328125 11.34375 -3.835938 11.34375 -5.921875 L 11.34375 -112.40625 C 11.34375 -114.476562 11.804688 -115.976562 12.734375 -116.90625 C 13.660156 -117.84375 15.164062 -118.3125 17.25 -118.3125 L 43.71875 -118.3125 C 45.46875 -118.3125 46.914062 -117.925781 48.0625 -117.15625 C 49.21875 -116.394531 50.285156 -115.140625 51.265625 -113.390625 L 66.0625 -86.59375 C 66.601562 -85.613281 67.066406 -84.90625 67.453125 -84.46875 C 67.835938 -84.03125 68.359375 -83.8125 69.015625 -83.8125 L 70.5 -83.8125 C 71.15625 -83.8125 71.675781 -84.03125 72.0625 -84.46875 C 72.445312 -84.90625 72.910156 -85.613281 73.453125 -86.59375 L 88.078125 -113.390625 C 89.066406 -115.140625 90.132812 -116.394531 91.28125 -117.15625 C 92.4375 -117.925781 93.890625 -118.3125 95.640625 -118.3125 L 122.265625 -118.3125 C 124.335938 -118.3125 125.835938 -117.84375 126.765625 -116.90625 C 127.703125 -115.976562 128.171875 -114.476562 128.171875 -112.40625 L 128.171875 -5.921875 C 128.171875 -3.835938 127.703125 -2.328125 126.765625 -1.390625 C 125.835938 -0.460938 124.335938 0 122.265625 0 L 96.953125 0 C 94.867188 0 93.359375 -0.460938 92.421875 -1.390625 C 91.492188 -2.328125 91.03125 -3.835938 91.03125 -5.921875 L 91.03125 -63.765625 L 81.34375 -45.84375 C 80.351562 -43.976562 79.171875 -42.632812 77.796875 -41.8125 C 76.429688 -41 74.710938 -40.59375 72.640625 -40.59375 L 66.0625 -40.59375 C 63.976562 -40.59375 62.25 -41 60.875 -41.8125 C 59.507812 -42.632812 58.332031 -43.976562 57.34375 -45.84375 L 47.65625 -63.765625 L 47.65625 -5.921875 C 47.65625 -3.835938 47.1875 -2.328125 46.25 -1.390625 C 45.320312 -0.460938 43.816406 0 41.734375 0 Z M 41.734375 0 "/></g></g></g><g fill="#ff0000" fill-opacity="1"><g transform="translate(168.240001, 225.46456)"><g><path d="M 15.234375 0 L 6.296875 0 C 5.535156 0 4.984375 -0.164062 4.640625 -0.5 C 4.304688 -0.84375 4.140625 -1.394531 4.140625 -2.15625 L 4.140625 -41.046875 C 4.140625 -41.804688 4.304688 -42.351562 4.640625 -42.6875 C 4.984375 -43.03125 5.535156 -43.203125 6.296875 -43.203125 L 15.953125 -43.203125 C 16.597656 -43.203125 17.128906 -43.0625 17.546875 -42.78125 C 17.972656 -42.5 18.363281 -42.039062 18.71875 -41.40625 L 24.125 -31.625 C 24.320312 -31.257812 24.488281 -30.992188 24.625 -30.828125 C 24.769531 -30.671875 24.960938 -30.59375 25.203125 -30.59375 L 25.734375 -30.59375 C 25.972656 -30.59375 26.160156 -30.671875 26.296875 -30.828125 C 26.441406 -30.992188 26.613281 -31.257812 26.8125 -31.625 L 32.15625 -41.40625 C 32.519531 -42.039062 32.910156 -42.5 33.328125 -42.78125 C 33.742188 -43.0625 34.273438 -43.203125 34.921875 -43.203125 L 44.640625 -43.203125 C 45.398438 -43.203125 45.945312 -43.03125 46.28125 -42.6875 C 46.625 -42.351562 46.796875 -41.804688 46.796875 -41.046875 L 46.796875 -2.15625 C 46.796875 -1.394531 46.625 -0.84375 46.28125 -0.5 C 45.945312 -0.164062 45.398438 0 44.640625 0 L 35.40625 0 C 34.644531 0 34.09375 -0.164062 33.75 -0.5 C 33.40625 -0.84375 33.234375 -1.394531 33.234375 -2.15625 L 33.234375 -23.28125 L 29.703125 -16.734375 C 29.335938 -16.054688 28.90625 -15.566406 28.40625 -15.265625 C 27.90625 -14.960938 27.273438 -14.8125 26.515625 -14.8125 L 24.125 -14.8125 C 23.363281 -14.8125 22.734375 -14.960938 22.234375 -15.265625 C 21.734375 -15.566406 21.300781 -16.054688 20.9375 -16.734375 L 17.40625 -23.28125 L 17.40625 -2.15625 C 17.40625 -1.394531 17.234375 -0.84375 16.890625 -0.5 C 16.546875 -0.164062 15.992188 0 15.234375 0 Z M 15.234375 0 "/></g></g></g><g fill="#ff0000" fill-opacity="1"><g transform="translate(219.17995, 225.46456)"><g><path d="M 34.140625 0 L 6.296875 0 C 5.535156 0 4.984375 -0.164062 4.640625 -0.5 C 4.304688 -0.84375 4.140625 -1.394531 4.140625 -2.15625 L 4.140625 -41.046875 C 4.140625 -41.804688 4.304688 -42.351562 4.640625 -42.6875 C 4.984375 -43.03125 5.535156 -43.203125 6.296875 -43.203125 L 34.140625 -43.203125 C 34.898438 -43.203125 35.445312 -43.03125 35.78125 -42.6875 C 36.125 -42.351562 36.296875 -41.804688 36.296875 -41.046875 L 36.296875 -34.015625 C 36.296875 -33.253906 36.125 -32.703125 35.78125 -32.359375 C 35.445312 -32.023438 34.898438 -31.859375 34.140625 -31.859375 L 17.578125 -31.859375 L 17.578125 -27.234375 L 29.28125 -27.234375 C 30.039062 -27.234375 30.585938 -27.0625 30.921875 -26.71875 C 31.265625 -26.382812 31.4375 -25.835938 31.4375 -25.078125 L 31.4375 -18.65625 C 31.4375 -17.894531 31.265625 -17.34375 30.921875 -17 C 30.585938 -16.664062 30.039062 -16.5 29.28125 -16.5 L 17.578125 -16.5 L 17.578125 -11.34375 L 34.140625 -11.34375 C 34.898438 -11.34375 35.445312 -11.171875 35.78125 -10.828125 C 36.125 -10.484375 36.296875 -9.9375 36.296875 -9.1875 L 36.296875 -2.15625 C 36.296875 -1.394531 36.125 -0.84375 35.78125 -0.5 C 35.445312 -0.164062 34.898438 0 34.140625 0 Z M 34.140625 0 "/></g></g></g><g fill="#00ffff" fill-opacity="1"><g transform="translate(171.366533, 222.549024)"><g><path d="M 15.234375 0 L 6.296875 0 C 5.535156 0 4.984375 -0.164062 4.640625 -0.5 C 4.304688 -0.84375 4.140625 -1.394531 4.140625 -2.15625 L 4.140625 -41.046875 C 4.140625 -41.804688 4.304688 -42.351562 4.640625 -42.6875 C 4.984375 -43.03125 5.535156 -43.203125 6.296875 -43.203125 L 15.953125 -43.203125 C 16.597656 -43.203125 17.128906 -43.0625 17.546875 -42.78125 C 17.972656 -42.5 18.363281 -42.039062 18.71875 -41.40625 L 24.125 -31.625 C 24.320312 -31.257812 24.488281 -30.992188 24.625 -30.828125 C 24.769531 -30.671875 24.960938 -30.59375 25.203125 -30.59375 L 25.734375 -30.59375 C 25.972656 -30.59375 26.160156 -30.671875 26.296875 -30.828125 C 26.441406 -30.992188 26.613281 -31.257812 26.8125 -31.625 L 32.15625 -41.40625 C 32.519531 -42.039062 32.910156 -42.5 33.328125 -42.78125 C 33.742188 -43.0625 34.273438 -43.203125 34.921875 -43.203125 L 44.640625 -43.203125 C 45.398438 -43.203125 45.945312 -43.03125 46.28125 -42.6875 C 46.625 -42.351562 46.796875 -41.804688 46.796875 -41.046875 L 46.796875 -2.15625 C 46.796875 -1.394531 46.625 -0.84375 46.28125 -0.5 C 45.945312 -0.164062 45.398438 0 44.640625 0 L 35.40625 0 C 34.644531 0 34.09375 -0.164062 33.75 -0.5 C 33.40625 -0.84375 33.234375 -1.394531 33.234375 -2.15625 L 33.234375 -23.28125 L 29.703125 -16.734375 C 29.335938 -16.054688 28.90625 -15.566406 28.40625 -15.265625 C 27.90625 -14.960938 27.273438 -14.8125 26.515625 -14.8125 L 24.125 -14.8125 C 23.363281 -14.8125 22.734375 -14.960938 22.234375 -15.265625 C 21.734375 -15.566406 21.300781 -16.054688 20.9375 -16.734375 L 17.40625 -23.28125 L 17.40625 -2.15625 C 17.40625 -1.394531 17.234375 -0.84375 16.890625 -0.5 C 16.546875 -0.164062 15.992188 0 15.234375 0 Z M 15.234375 0 "/></g></g></g><g fill="#00ffff" fill-opacity="1"><g transform="translate(222.306483, 222.549024)"><g><path d="M 34.140625 0 L 6.296875 0 C 5.535156 0 4.984375 -0.164062 4.640625 -0.5 C 4.304688 -0.84375 4.140625 -1.394531 4.140625 -2.15625 L 4.140625 -41.046875 C 4.140625 -41.804688 4.304688 -42.351562 4.640625 -42.6875 C 4.984375 -43.03125 5.535156 -43.203125 6.296875 -43.203125 L 34.140625 -43.203125 C 34.898438 -43.203125 35.445312 -43.03125 35.78125 -42.6875 C 36.125 -42.351562 36.296875 -41.804688 36.296875 -41.046875 L 36.296875 -34.015625 C 36.296875 -33.253906 36.125 -32.703125 35.78125 -32.359375 C 35.445312 -32.023438 34.898438 -31.859375 34.140625 -31.859375 L 17.578125 -31.859375 L 17.578125 -27.234375 L 29.28125 -27.234375 C 30.039062 -27.234375 30.585938 -27.0625 30.921875 -26.71875 C 31.265625 -26.382812 31.4375 -25.835938 31.4375 -25.078125 L 31.4375 -18.65625 C 31.4375 -17.894531 31.265625 -17.34375 30.921875 -17 C 30.585938 -16.664062 30.039062 -16.5 29.28125 -16.5 L 17.578125 -16.5 L 17.578125 -11.34375 L 34.140625 -11.34375 C 34.898438 -11.34375 35.445312 -11.171875 35.78125 -10.828125 C 36.125 -10.484375 36.296875 -9.9375 36.296875 -9.1875 L 36.296875 -2.15625 C 36.296875 -1.394531 36.125 -0.84375 35.78125 -0.5 C 35.445312 -0.164062 34.898438 0 34.140625 0 Z M 34.140625 0 "/></g></g></g><g fill="#ff0000" fill-opacity="1"><g transform="translate(258.427499, 225.46456)"><g/></g></g><g fill="#00ffff" fill-opacity="1"><g transform="translate(261.554031, 222.549024)"><g/></g></g><g fill="#ff0000" fill-opacity="1"><g transform="translate(78.661882, 270.464557)"><g><path d="M 15.59375 0 L 6.296875 0 C 5.535156 0 4.984375 -0.164062 4.640625 -0.5 C 4.304688 -0.84375 4.140625 -1.394531 4.140625 -2.15625 L 4.140625 -41.046875 C 4.140625 -41.804688 4.304688 -42.351562 4.640625 -42.6875 C 4.984375 -43.03125 5.535156 -43.203125 6.296875 -43.203125 L 24.65625 -43.203125 C 30.09375 -43.203125 33.8125 -42.117188 35.8125 -39.953125 C 37.8125 -37.796875 38.8125 -34.976562 38.8125 -31.5 L 38.8125 -23.8125 C 38.8125 -20.332031 37.8125 -17.515625 35.8125 -15.359375 C 33.8125 -13.203125 30.09375 -12.125 24.65625 -12.125 L 17.765625 -12.125 L 17.765625 -2.15625 C 17.765625 -1.394531 17.59375 -0.84375 17.25 -0.5 C 16.90625 -0.164062 16.351562 0 15.59375 0 Z M 17.640625 -31.984375 L 17.640625 -22.921875 L 23.046875 -22.921875 C 24.203125 -22.921875 24.957031 -23.21875 25.3125 -23.8125 C 25.675781 -24.414062 25.859375 -25.097656 25.859375 -25.859375 L 25.859375 -29.046875 C 25.859375 -29.804688 25.675781 -30.484375 25.3125 -31.078125 C 24.957031 -31.679688 24.203125 -31.984375 23.046875 -31.984375 Z M 17.640625 -31.984375 "/></g></g></g><g fill="#ff0000" fill-opacity="1"><g transform="translate(119.581843, 270.464557)"><g><path d="M 36.84375 0 L 6.296875 0 C 5.535156 0 4.984375 -0.164062 4.640625 -0.5 C 4.304688 -0.84375 4.140625 -1.394531 4.140625 -2.15625 L 4.140625 -41.046875 C 4.140625 -41.804688 4.304688 -42.351562 4.640625 -42.6875 C 4.984375 -43.03125 5.535156 -43.203125 6.296875 -43.203125 L 15.59375 -43.203125 C 16.351562 -43.203125 16.90625 -43.03125 17.25 -42.6875 C 17.59375 -42.351562 17.765625 -41.804688 17.765625 -41.046875 L 17.765625 -11.34375 L 25.984375 -11.34375 L 25.984375 -21.0625 C 25.984375 -21.820312 26.148438 -22.367188 26.484375 -22.703125 C 26.828125 -23.046875 27.378906 -23.21875 28.140625 -23.21875 L 36.84375 -23.21875 C 37.601562 -23.21875 38.148438 -23.046875 38.484375 -22.703125 C 38.828125 -22.367188 39 -21.820312 39 -21.0625 L 39 -2.15625 C 39 -1.394531 38.828125 -0.84375 38.484375 -0.5 C 38.148438 -0.164062 37.601562 0 36.84375 0 Z M 36.84375 0 "/></g></g></g><g fill="#ff0000" fill-opacity="1"><g transform="translate(161.281799, 270.464557)"><g><path d="M 34.140625 0 L 6.296875 0 C 5.535156 0 4.984375 -0.164062 4.640625 -0.5 C 4.304688 -0.84375 4.140625 -1.394531 4.140625 -2.15625 L 4.140625 -41.046875 C 4.140625 -41.804688 4.304688 -42.351562 4.640625 -42.6875 C 4.984375 -43.03125 5.535156 -43.203125 6.296875 -43.203125 L 34.140625 -43.203125 C 34.898438 -43.203125 35.445312 -43.03125 35.78125 -42.6875 C 36.125 -42.351562 36.296875 -41.804688 36.296875 -41.046875 L 36.296875 -34.015625 C 36.296875 -33.253906 36.125 -32.703125 35.78125 -32.359375 C 35.445312 -32.023438 34.898438 -31.859375 34.140625 -31.859375 L 17.578125 -31.859375 L 17.578125 -27.234375 L 29.28125 -27.234375 C 30.039062 -27.234375 30.585938 -27.0625 30.921875 -26.71875 C 31.265625 -26.382812 31.4375 -25.835938 31.4375 -25.078125 L 31.4375 -18.65625 C 31.4375 -17.894531 31.265625 -17.34375 30.921875 -17 C 30.585938 -16.664062 30.039062 -16.5 29.28125 -16.5 L 17.578125 -16.5 L 17.578125 -11.34375 L 34.140625 -11.34375 C 34.898438 -11.34375 35.445312 -11.171875 35.78125 -10.828125 C 36.125 -10.484375 36.296875 -9.9375 36.296875 -9.1875 L 36.296875 -2.15625 C 36.296875 -1.394531 36.125 -0.84375 35.78125 -0.5 C 35.445312 -0.164062 34.898438 0 34.140625 0 Z M 34.140625 0 "/></g></g></g><g fill="#ff0000" fill-opacity="1"><g transform="translate(200.521756, 270.464557)"><g><path d="M 19.796875 -30.59375 L 16.984375 -21.484375 L 26.40625 -21.484375 L 23.578125 -30.59375 C 23.421875 -30.957031 23.25 -31.21875 23.0625 -31.375 C 22.882812 -31.539062 22.675781 -31.625 22.4375 -31.625 L 20.9375 -31.625 C 20.695312 -31.625 20.488281 -31.539062 20.3125 -31.375 C 20.132812 -31.21875 19.960938 -30.957031 19.796875 -30.59375 Z M 16.375 -2.15625 C 16.375 -1.394531 16.203125 -0.84375 15.859375 -0.5 C 15.523438 -0.164062 14.976562 0 14.21875 0 L 5.40625 0 C 4.644531 0 4.09375 -0.164062 3.75 -0.5 C 3.40625 -0.84375 3.234375 -1.394531 3.234375 -2.15625 L 3.234375 -18 C 3.234375 -19.195312 3.421875 -20.578125 3.796875 -22.140625 C 4.179688 -23.703125 4.773438 -25.519531 5.578125 -27.59375 L 10.796875 -41.21875 C 11.035156 -41.894531 11.40625 -42.394531 11.90625 -42.71875 C 12.40625 -43.039062 13.054688 -43.203125 13.859375 -43.203125 L 30 -43.203125 C 30.757812 -43.203125 31.390625 -43.039062 31.890625 -42.71875 C 32.390625 -42.394531 32.757812 -41.894531 33 -41.21875 L 38.21875 -27.59375 C 39.019531 -25.519531 39.609375 -23.703125 39.984375 -22.140625 C 40.367188 -20.578125 40.5625 -19.195312 40.5625 -18 L 40.5625 -2.15625 C 40.5625 -1.394531 40.390625 -0.84375 40.046875 -0.5 C 39.710938 -0.164062 39.164062 0 38.40625 0 L 29.34375 0 C 28.539062 0 27.945312 -0.164062 27.5625 -0.5 C 27.1875 -0.84375 27 -1.394531 27 -2.15625 L 27 -10.5625 L 16.375 -10.5625 Z M 16.375 -2.15625 "/></g></g></g><g fill="#ff0000" fill-opacity="1"><g transform="translate(244.321714, 270.464557)"><g><path d="M 24.1875 0 L 5.21875 0 C 4.457031 0 3.90625 -0.164062 3.5625 -0.5 C 3.226562 -0.84375 3.0625 -1.394531 3.0625 -2.15625 L 3.0625 -9.1875 C 3.0625 -9.9375 3.226562 -10.484375 3.5625 -10.828125 C 3.90625 -11.171875 4.457031 -11.34375 5.21875 -11.34375 L 21.359375 -11.34375 C 21.878906 -11.34375 22.269531 -11.507812 22.53125 -11.84375 C 22.789062 -12.1875 22.921875 -12.597656 22.921875 -13.078125 C 22.921875 -13.753906 22.789062 -14.253906 22.53125 -14.578125 C 22.269531 -14.898438 21.878906 -15.082031 21.359375 -15.125 L 12.359375 -16.375 C 9.554688 -16.78125 7.304688 -17.703125 5.609375 -19.140625 C 3.910156 -20.578125 3.0625 -22.976562 3.0625 -26.34375 L 3.0625 -32.640625 C 3.0625 -36.035156 4.160156 -38.644531 6.359375 -40.46875 C 8.554688 -42.289062 11.597656 -43.203125 15.484375 -43.203125 L 32.28125 -43.203125 C 33.039062 -43.203125 33.585938 -43.03125 33.921875 -42.6875 C 34.265625 -42.351562 34.4375 -41.804688 34.4375 -41.046875 L 34.4375 -33.90625 C 34.4375 -33.144531 34.265625 -32.59375 33.921875 -32.25 C 33.585938 -31.90625 33.039062 -31.734375 32.28125 -31.734375 L 18.296875 -31.734375 C 17.773438 -31.734375 17.375 -31.5625 17.09375 -31.21875 C 16.820312 -30.882812 16.6875 -30.457031 16.6875 -29.9375 C 16.6875 -29.414062 16.820312 -28.972656 17.09375 -28.609375 C 17.375 -28.253906 17.773438 -28.054688 18.296875 -28.015625 L 27.234375 -26.8125 C 30.035156 -26.414062 32.296875 -25.5 34.015625 -24.0625 C 35.734375 -22.625 36.59375 -20.222656 36.59375 -16.859375 L 36.59375 -10.5625 C 36.59375 -7.15625 35.484375 -4.539062 33.265625 -2.71875 C 31.046875 -0.90625 28.019531 0 24.1875 0 Z M 24.1875 0 "/></g></g></g><g fill="#ff0000" fill-opacity="1"><g transform="translate(283.321688, 270.464557)"><g><path d="M 34.140625 0 L 6.296875 0 C 5.535156 0 4.984375 -0.164062 4.640625 -0.5 C 4.304688 -0.84375 4.140625 -1.394531 4.140625 -2.15625 L 4.140625 -41.046875 C 4.140625 -41.804688 4.304688 -42.351562 4.640625 -42.6875 C 4.984375 -43.03125 5.535156 -43.203125 6.296875 -43.203125 L 34.140625 -43.203125 C 34.898438 -43.203125 35.445312 -43.03125 35.78125 -42.6875 C 36.125 -42.351562 36.296875 -41.804688 36.296875 -41.046875 L 36.296875 -34.015625 C 36.296875 -33.253906 36.125 -32.703125 35.78125 -32.359375 C 35.445312 -32.023438 34.898438 -31.859375 34.140625 -31.859375 L 17.578125 -31.859375 L 17.578125 -27.234375 L 29.28125 -27.234375 C 30.039062 -27.234375 30.585938 -27.0625 30.921875 -26.71875 C 31.265625 -26.382812 31.4375 -25.835938 31.4375 -25.078125 L 31.4375 -18.65625 C 31.4375 -17.894531 31.265625 -17.34375 30.921875 -17 C 30.585938 -16.664062 30.039062 -16.5 29.28125 -16.5 L 17.578125 -16.5 L 17.578125 -11.34375 L 34.140625 -11.34375 C 34.898438 -11.34375 35.445312 -11.171875 35.78125 -10.828125 C 36.125 -10.484375 36.296875 -9.9375 36.296875 -9.1875 L 36.296875 -2.15625 C 36.296875 -1.394531 36.125 -0.84375 35.78125 -0.5 C 35.445312 -0.164062 34.898438 0 34.140625 0 Z M 34.140625 0 "/></g></g></g><g fill="#ff0000" fill-opacity="1"><g transform="translate(322.561645, 270.464557)"><g><path d="M 17.40625 -15.71875 L 8.109375 -15.71875 C 7.347656 -15.71875 6.796875 -15.882812 6.453125 -16.21875 C 6.109375 -16.5625 5.914062 -17.113281 5.875 -17.875 L 4.984375 -41.046875 C 4.941406 -41.804688 5.078125 -42.351562 5.390625 -42.6875 C 5.710938 -43.03125 6.253906 -43.203125 7.015625 -43.203125 L 18.484375 -43.203125 C 19.242188 -43.203125 19.78125 -43.03125 20.09375 -42.6875 C 20.414062 -42.351562 20.554688 -41.804688 20.515625 -41.046875 L 19.6875 -17.875 C 19.644531 -17.113281 19.441406 -16.5625 19.078125 -16.21875 C 18.722656 -15.882812 18.164062 -15.71875 17.40625 -15.71875 Z M 18.296875 0 L 7.265625 0 C 6.503906 0 5.953125 -0.164062 5.609375 -0.5 C 5.273438 -0.84375 5.109375 -1.394531 5.109375 -2.15625 L 5.109375 -10.015625 C 5.109375 -10.773438 5.273438 -11.328125 5.609375 -11.671875 C 5.953125 -12.015625 6.503906 -12.1875 7.265625 -12.1875 L 18.296875 -12.1875 C 19.054688 -12.1875 19.609375 -12.015625 19.953125 -11.671875 C 20.296875 -11.328125 20.46875 -10.773438 20.46875 -10.015625 L 20.46875 -2.15625 C 20.46875 -1.394531 20.296875 -0.84375 19.953125 -0.5 C 19.609375 -0.164062 19.054688 0 18.296875 0 Z M 18.296875 0 "/></g></g></g><g fill="#00ffff" fill-opacity="1"><g transform="translate(81.788414, 267.549021)"><g><path d="M 15.59375 0 L 6.296875 0 C 5.535156 0 4.984375 -0.164062 4.640625 -0.5 C 4.304688 -0.84375 4.140625 -1.394531 4.140625 -2.15625 L 4.140625 -41.046875 C 4.140625 -41.804688 4.304688 -42.351562 4.640625 -42.6875 C 4.984375 -43.03125 5.535156 -43.203125 6.296875 -43.203125 L 24.65625 -43.203125 C 30.09375 -43.203125 33.8125 -42.117188 35.8125 -39.953125 C 37.8125 -37.796875 38.8125 -34.976562 38.8125 -31.5 L 38.8125 -23.8125 C 38.8125 -20.332031 37.8125 -17.515625 35.8125 -15.359375 C 33.8125 -13.203125 30.09375 -12.125 24.65625 -12.125 L 17.765625 -12.125 L 17.765625 -2.15625 C 17.765625 -1.394531 17.59375 -0.84375 17.25 -0.5 C 16.90625 -0.164062 16.351562 0 15.59375 0 Z M 17.640625 -31.984375 L 17.640625 -22.921875 L 23.046875 -22.921875 C 24.203125 -22.921875 24.957031 -23.21875 25.3125 -23.8125 C 25.675781 -24.414062 25.859375 -25.097656 25.859375 -25.859375 L 25.859375 -29.046875 C 25.859375 -29.804688 25.675781 -30.484375 25.3125 -31.078125 C 24.957031 -31.679688 24.203125 -31.984375 23.046875 -31.984375 Z M 17.640625 -31.984375 "/></g></g></g><g fill="#00ffff" fill-opacity="1"><g transform="translate(122.708376, 267.549021)"><g><path d="M 36.84375 0 L 6.296875 0 C 5.535156 0 4.984375 -0.164062 4.640625 -0.5 C 4.304688 -0.84375 4.140625 -1.394531 4.140625 -2.15625 L 4.140625 -41.046875 C 4.140625 -41.804688 4.304688 -42.351562 4.640625 -42.6875 C 4.984375 -43.03125 5.535156 -43.203125 6.296875 -43.203125 L 15.59375 -43.203125 C 16.351562 -43.203125 16.90625 -43.03125 17.25 -42.6875 C 17.59375 -42.351562 17.765625 -41.804688 17.765625 -41.046875 L 17.765625 -11.34375 L 25.984375 -11.34375 L 25.984375 -21.0625 C 25.984375 -21.820312 26.148438 -22.367188 26.484375 -22.703125 C 26.828125 -23.046875 27.378906 -23.21875 28.140625 -23.21875 L 36.84375 -23.21875 C 37.601562 -23.21875 38.148438 -23.046875 38.484375 -22.703125 C 38.828125 -22.367188 39 -21.820312 39 -21.0625 L 39 -2.15625 C 39 -1.394531 38.828125 -0.84375 38.484375 -0.5 C 38.148438 -0.164062 37.601562 0 36.84375 0 Z M 36.84375 0 "/></g></g></g><g fill="#00ffff" fill-opacity="1"><g transform="translate(164.408332, 267.549021)"><g><path d="M 34.140625 0 L 6.296875 0 C 5.535156 0 4.984375 -0.164062 4.640625 -0.5 C 4.304688 -0.84375 4.140625 -1.394531 4.140625 -2.15625 L 4.140625 -41.046875 C 4.140625 -41.804688 4.304688 -42.351562 4.640625 -42.6875 C 4.984375 -43.03125 5.535156 -43.203125 6.296875 -43.203125 L 34.140625 -43.203125 C 34.898438 -43.203125 35.445312 -43.03125 35.78125 -42.6875 C 36.125 -42.351562 36.296875 -41.804688 36.296875 -41.046875 L 36.296875 -34.015625 C 36.296875 -33.253906 36.125 -32.703125 35.78125 -32.359375 C 35.445312 -32.023438 34.898438 -31.859375 34.140625 -31.859375 L 17.578125 -31.859375 L 17.578125 -27.234375 L 29.28125 -27.234375 C 30.039062 -27.234375 30.585938 -27.0625 30.921875 -26.71875 C 31.265625 -26.382812 31.4375 -25.835938 31.4375 -25.078125 L 31.4375 -18.65625 C 31.4375 -17.894531 31.265625 -17.34375 30.921875 -17 C 30.585938 -16.664062 30.039062 -16.5 29.28125 -16.5 L 17.578125 -16.5 L 17.578125 -11.34375 L 34.140625 -11.34375 C 34.898438 -11.34375 35.445312 -11.171875 35.78125 -10.828125 C 36.125 -10.484375 36.296875 -9.9375 36.296875 -9.1875 L 36.296875 -2.15625 C 36.296875 -1.394531 36.125 -0.84375 35.78125 -0.5 C 35.445312 -0.164062 34.898438 0 34.140625 0 Z M 34.140625 0 "/></g></g></g><g fill="#00ffff" fill-opacity="1"><g transform="translate(203.648289, 267.549021)"><g><path d="M 19.796875 -30.59375 L 16.984375 -21.484375 L 26.40625 -21.484375 L 23.578125 -30.59375 C 23.421875 -30.957031 23.25 -31.21875 23.0625 -31.375 C 22.882812 -31.539062 22.675781 -31.625 22.4375 -31.625 L 20.9375 -31.625 C 20.695312 -31.625 20.488281 -31.539062 20.3125 -31.375 C 20.132812 -31.21875 19.960938 -30.957031 19.796875 -30.59375 Z M 16.375 -2.15625 C 16.375 -1.394531 16.203125 -0.84375 15.859375 -0.5 C 15.523438 -0.164062 14.976562 0 14.21875 0 L 5.40625 0 C 4.644531 0 4.09375 -0.164062 3.75 -0.5 C 3.40625 -0.84375 3.234375 -1.394531 3.234375 -2.15625 L 3.234375 -18 C 3.234375 -19.195312 3.421875 -20.578125 3.796875 -22.140625 C 4.179688 -23.703125 4.773438 -25.519531 5.578125 -27.59375 L 10.796875 -41.21875 C 11.035156 -41.894531 11.40625 -42.394531 11.90625 -42.71875 C 12.40625 -43.039062 13.054688 -43.203125 13.859375 -43.203125 L 30 -43.203125 C 30.757812 -43.203125 31.390625 -43.039062 31.890625 -42.71875 C 32.390625 -42.394531 32.757812 -41.894531 33 -41.21875 L 38.21875 -27.59375 C 39.019531 -25.519531 39.609375 -23.703125 39.984375 -22.140625 C 40.367188 -20.578125 40.5625 -19.195312 40.5625 -18 L 40.5625 -2.15625 C 40.5625 -1.394531 40.390625 -0.84375 40.046875 -0.5 C 39.710938 -0.164062 39.164062 0 38.40625 0 L 29.34375 0 C 28.539062 0 27.945312 -0.164062 27.5625 -0.5 C 27.1875 -0.84375 27 -1.394531 27 -2.15625 L 27 -10.5625 L 16.375 -10.5625 Z M 16.375 -2.15625 "/></g></g></g><g fill="#00ffff" fill-opacity="1"><g transform="translate(247.448247, 267.549021)"><g><path d="M 24.1875 0 L 5.21875 0 C 4.457031 0 3.90625 -0.164062 3.5625 -0.5 C 3.226562 -0.84375 3.0625 -1.394531 3.0625 -2.15625 L 3.0625 -9.1875 C 3.0625 -9.9375 3.226562 -10.484375 3.5625 -10.828125 C 3.90625 -11.171875 4.457031 -11.34375 5.21875 -11.34375 L 21.359375 -11.34375 C 21.878906 -11.34375 22.269531 -11.507812 22.53125 -11.84375 C 22.789062 -12.1875 22.921875 -12.597656 22.921875 -13.078125 C 22.921875 -13.753906 22.789062 -14.253906 22.53125 -14.578125 C 22.269531 -14.898438 21.878906 -15.082031 21.359375 -15.125 L 12.359375 -16.375 C 9.554688 -16.78125 7.304688 -17.703125 5.609375 -19.140625 C 3.910156 -20.578125 3.0625 -22.976562 3.0625 -26.34375 L 3.0625 -32.640625 C 3.0625 -36.035156 4.160156 -38.644531 6.359375 -40.46875 C 8.554688 -42.289062 11.597656 -43.203125 15.484375 -43.203125 L 32.28125 -43.203125 C 33.039062 -43.203125 33.585938 -43.03125 33.921875 -42.6875 C 34.265625 -42.351562 34.4375 -41.804688 34.4375 -41.046875 L 34.4375 -33.90625 C 34.4375 -33.144531 34.265625 -32.59375 33.921875 -32.25 C 33.585938 -31.90625 33.039062 -31.734375 32.28125 -31.734375 L 18.296875 -31.734375 C 17.773438 -31.734375 17.375 -31.5625 17.09375 -31.21875 C 16.820312 -30.882812 16.6875 -30.457031 16.6875 -29.9375 C 16.6875 -29.414062 16.820312 -28.972656 17.09375 -28.609375 C 17.375 -28.253906 17.773438 -28.054688 18.296875 -28.015625 L 27.234375 -26.8125 C 30.035156 -26.414062 32.296875 -25.5 34.015625 -24.0625 C 35.734375 -22.625 36.59375 -20.222656 36.59375 -16.859375 L 36.59375 -10.5625 C 36.59375 -7.15625 35.484375 -4.539062 33.265625 -2.71875 C 31.046875 -0.90625 28.019531 0 24.1875 0 Z M 24.1875 0 "/></g></g></g><g fill="#00ffff" fill-opacity="1"><g transform="translate(286.448221, 267.549021)"><g><path d="M 34.140625 0 L 6.296875 0 C 5.535156 0 4.984375 -0.164062 4.640625 -0.5 C 4.304688 -0.84375 4.140625 -1.394531 4.140625 -2.15625 L 4.140625 -41.046875 C 4.140625 -41.804688 4.304688 -42.351562 4.640625 -42.6875 C 4.984375 -43.03125 5.535156 -43.203125 6.296875 -43.203125 L 34.140625 -43.203125 C 34.898438 -43.203125 35.445312 -43.03125 35.78125 -42.6875 C 36.125 -42.351562 36.296875 -41.804688 36.296875 -41.046875 L 36.296875 -34.015625 C 36.296875 -33.253906 36.125 -32.703125 35.78125 -32.359375 C 35.445312 -32.023438 34.898438 -31.859375 34.140625 -31.859375 L 17.578125 -31.859375 L 17.578125 -27.234375 L 29.28125 -27.234375 C 30.039062 -27.234375 30.585938 -27.0625 30.921875 -26.71875 C 31.265625 -26.382812 31.4375 -25.835938 31.4375 -25.078125 L 31.4375 -18.65625 C 31.4375 -17.894531 31.265625 -17.34375 30.921875 -17 C 30.585938 -16.664062 30.039062 -16.5 29.28125 -16.5 L 17.578125 -16.5 L 17.578125 -11.34375 L 34.140625 -11.34375 C 34.898438 -11.34375 35.445312 -11.171875 35.78125 -10.828125 C 36.125 -10.484375 36.296875 -9.9375 36.296875 -9.1875 L 36.296875 -2.15625 C 36.296875 -1.394531 36.125 -0.84375 35.78125 -0.5 C 35.445312 -0.164062 34.898438 0 34.140625 0 Z M 34.140625 0 "/></g></g></g><g fill="#00ffff" fill-opacity="1"><g transform="translate(325.688178, 267.549021)"><g><path d="M 17.40625 -15.71875 L 8.109375 -15.71875 C 7.347656 -15.71875 6.796875 -15.882812 6.453125 -16.21875 C 6.109375 -16.5625 5.914062 -17.113281 5.875 -17.875 L 4.984375 -41.046875 C 4.941406 -41.804688 5.078125 -42.351562 5.390625 -42.6875 C 5.710938 -43.03125 6.253906 -43.203125 7.015625 -43.203125 L 18.484375 -43.203125 C 19.242188 -43.203125 19.78125 -43.03125 20.09375 -42.6875 C 20.414062 -42.351562 20.554688 -41.804688 20.515625 -41.046875 L 19.6875 -17.875 C 19.644531 -17.113281 19.441406 -16.5625 19.078125 -16.21875 C 18.722656 -15.882812 18.164062 -15.71875 17.40625 -15.71875 Z M 18.296875 0 L 7.265625 0 C 6.503906 0 5.953125 -0.164062 5.609375 -0.5 C 5.273438 -0.84375 5.109375 -1.394531 5.109375 -2.15625 L 5.109375 -10.015625 C 5.109375 -10.773438 5.273438 -11.328125 5.609375 -11.671875 C 5.953125 -12.015625 6.503906 -12.1875 7.265625 -12.1875 L 18.296875 -12.1875 C 19.054688 -12.1875 19.609375 -12.015625 19.953125 -11.671875 C 20.296875 -11.328125 20.46875 -10.773438 20.46875 -10.015625 L 20.46875 -2.15625 C 20.46875 -1.394531 20.296875 -0.84375 19.953125 -0.5 C 19.609375 -0.164062 19.054688 0 18.296875 0 Z M 18.296875 0 "/></g></g></g><g fill="#ff0000" fill-opacity="1"><g transform="translate(348.005618, 270.464557)"><g/></g></g><g fill="#00ffff" fill-opacity="1"><g transform="translate(351.13215, 267.549021)"><g/></g></g><g fill="#6a40c0" fill-opacity="1"><g transform="translate(169.803267, 224.006791)"><g><path d="M 15.234375 0 L 6.296875 0 C 5.535156 0 4.984375 -0.164062 4.640625 -0.5 C 4.304688 -0.84375 4.140625 -1.394531 4.140625 -2.15625 L 4.140625 -41.046875 C 4.140625 -41.804688 4.304688 -42.351562 4.640625 -42.6875 C 4.984375 -43.03125 5.535156 -43.203125 6.296875 -43.203125 L 15.953125 -43.203125 C 16.597656 -43.203125 17.128906 -43.0625 17.546875 -42.78125 C 17.972656 -42.5 18.363281 -42.039062 18.71875 -41.40625 L 24.125 -31.625 C 24.320312 -31.257812 24.488281 -30.992188 24.625 -30.828125 C 24.769531 -30.671875 24.960938 -30.59375 25.203125 -30.59375 L 25.734375 -30.59375 C 25.972656 -30.59375 26.160156 -30.671875 26.296875 -30.828125 C 26.441406 -30.992188 26.613281 -31.257812 26.8125 -31.625 L 32.15625 -41.40625 C 32.519531 -42.039062 32.910156 -42.5 33.328125 -42.78125 C 33.742188 -43.0625 34.273438 -43.203125 34.921875 -43.203125 L 44.640625 -43.203125 C 45.398438 -43.203125 45.945312 -43.03125 46.28125 -42.6875 C 46.625 -42.351562 46.796875 -41.804688 46.796875 -41.046875 L 46.796875 -2.15625 C 46.796875 -1.394531 46.625 -0.84375 46.28125 -0.5 C 45.945312 -0.164062 45.398438 0 44.640625 0 L 35.40625 0 C 34.644531 0 34.09375 -0.164062 33.75 -0.5 C 33.40625 -0.84375 33.234375 -1.394531 33.234375 -2.15625 L 33.234375 -23.28125 L 29.703125 -16.734375 C 29.335938 -16.054688 28.90625 -15.566406 28.40625 -15.265625 C 27.90625 -14.960938 27.273438 -14.8125 26.515625 -14.8125 L 24.125 -14.8125 C 23.363281 -14.8125 22.734375 -14.960938 22.234375 -15.265625 C 21.734375 -15.566406 21.300781 -16.054688 20.9375 -16.734375 L 17.40625 -23.28125 L 17.40625 -2.15625 C 17.40625 -1.394531 17.234375 -0.84375 16.890625 -0.5 C 16.546875 -0.164062 15.992188 0 15.234375 0 Z M 15.234375 0 "/></g></g></g><g fill="#6a40c0" fill-opacity="1"><g transform="translate(220.743217, 224.006791)"><g><path d="M 34.140625 0 L 6.296875 0 C 5.535156 0 4.984375 -0.164062 4.640625 -0.5 C 4.304688 -0.84375 4.140625 -1.394531 4.140625 -2.15625 L 4.140625 -41.046875 C 4.140625 -41.804688 4.304688 -42.351562 4.640625 -42.6875 C 4.984375 -43.03125 5.535156 -43.203125 6.296875 -43.203125 L 34.140625 -43.203125 C 34.898438 -43.203125 35.445312 -43.03125 35.78125 -42.6875 C 36.125 -42.351562 36.296875 -41.804688 36.296875 -41.046875 L 36.296875 -34.015625 C 36.296875 -33.253906 36.125 -32.703125 35.78125 -32.359375 C 35.445312 -32.023438 34.898438 -31.859375 34.140625 -31.859375 L 17.578125 -31.859375 L 17.578125 -27.234375 L 29.28125 -27.234375 C 30.039062 -27.234375 30.585938 -27.0625 30.921875 -26.71875 C 31.265625 -26.382812 31.4375 -25.835938 31.4375 -25.078125 L 31.4375 -18.65625 C 31.4375 -17.894531 31.265625 -17.34375 30.921875 -17 C 30.585938 -16.664062 30.039062 -16.5 29.28125 -16.5 L 17.578125 -16.5 L 17.578125 -11.34375 L 34.140625 -11.34375 C 34.898438 -11.34375 35.445312 -11.171875 35.78125 -10.828125 C 36.125 -10.484375 36.296875 -9.9375 36.296875 -9.1875 L 36.296875 -2.15625 C 36.296875 -1.394531 36.125 -0.84375 35.78125 -0.5 C 35.445312 -0.164062 34.898438 0 34.140625 0 Z M 34.140625 0 "/></g></g></g><g fill="#6a40c0" fill-opacity="1"><g transform="translate(259.990765, 224.006791)"><g/></g></g><g fill="#6a40c0" fill-opacity="1"><g transform="translate(80.225148, 269.006788)"><g><path d="M 15.59375 0 L 6.296875 0 C 5.535156 0 4.984375 -0.164062 4.640625 -0.5 C 4.304688 -0.84375 4.140625 -1.394531 4.140625 -2.15625 L 4.140625 -41.046875 C 4.140625 -41.804688 4.304688 -42.351562 4.640625 -42.6875 C 4.984375 -43.03125 5.535156 -43.203125 6.296875 -43.203125 L 24.65625 -43.203125 C 30.09375 -43.203125 33.8125 -42.117188 35.8125 -39.953125 C 37.8125 -37.796875 38.8125 -34.976562 38.8125 -31.5 L 38.8125 -23.8125 C 38.8125 -20.332031 37.8125 -17.515625 35.8125 -15.359375 C 33.8125 -13.203125 30.09375 -12.125 24.65625 -12.125 L 17.765625 -12.125 L 17.765625 -2.15625 C 17.765625 -1.394531 17.59375 -0.84375 17.25 -0.5 C 16.90625 -0.164062 16.351562 0 15.59375 0 Z M 17.640625 -31.984375 L 17.640625 -22.921875 L 23.046875 -22.921875 C 24.203125 -22.921875 24.957031 -23.21875 25.3125 -23.8125 C 25.675781 -24.414062 25.859375 -25.097656 25.859375 -25.859375 L 25.859375 -29.046875 C 25.859375 -29.804688 25.675781 -30.484375 25.3125 -31.078125 C 24.957031 -31.679688 24.203125 -31.984375 23.046875 -31.984375 Z M 17.640625 -31.984375 "/></g></g></g><g fill="#6a40c0" fill-opacity="1"><g transform="translate(121.145109, 269.006788)"><g><path d="M 36.84375 0 L 6.296875 0 C 5.535156 0 4.984375 -0.164062 4.640625 -0.5 C 4.304688 -0.84375 4.140625 -1.394531 4.140625 -2.15625 L 4.140625 -41.046875 C 4.140625 -41.804688 4.304688 -42.351562 4.640625 -42.6875 C 4.984375 -43.03125 5.535156 -43.203125 6.296875 -43.203125 L 15.59375 -43.203125 C 16.351562 -43.203125 16.90625 -43.03125 17.25 -42.6875 C 17.59375 -42.351562 17.765625 -41.804688 17.765625 -41.046875 L 17.765625 -11.34375 L 25.984375 -11.34375 L 25.984375 -21.0625 C 25.984375 -21.820312 26.148438 -22.367188 26.484375 -22.703125 C 26.828125 -23.046875 27.378906 -23.21875 28.140625 -23.21875 L 36.84375 -23.21875 C 37.601562 -23.21875 38.148438 -23.046875 38.484375 -22.703125 C 38.828125 -22.367188 39 -21.820312 39 -21.0625 L 39 -2.15625 C 39 -1.394531 38.828125 -0.84375 38.484375 -0.5 C 38.148438 -0.164062 37.601562 0 36.84375 0 Z M 36.84375 0 "/></g></g></g><g fill="#6a40c0" fill-opacity="1"><g transform="translate(162.845065, 269.006788)"><g><path d="M 34.140625 0 L 6.296875 0 C 5.535156 0 4.984375 -0.164062 4.640625 -0.5 C 4.304688 -0.84375 4.140625 -1.394531 4.140625 -2.15625 L 4.140625 -41.046875 C 4.140625 -41.804688 4.304688 -42.351562 4.640625 -42.6875 C 4.984375 -43.03125 5.535156 -43.203125 6.296875 -43.203125 L 34.140625 -43.203125 C 34.898438 -43.203125 35.445312 -43.03125 35.78125 -42.6875 C 36.125 -42.351562 36.296875 -41.804688 36.296875 -41.046875 L 36.296875 -34.015625 C 36.296875 -33.253906 36.125 -32.703125 35.78125 -32.359375 C 35.445312 -32.023438 34.898438 -31.859375 34.140625 -31.859375 L 17.578125 -31.859375 L 17.578125 -27.234375 L 29.28125 -27.234375 C 30.039062 -27.234375 30.585938 -27.0625 30.921875 -26.71875 C 31.265625 -26.382812 31.4375 -25.835938 31.4375 -25.078125 L 31.4375 -18.65625 C 31.4375 -17.894531 31.265625 -17.34375 30.921875 -17 C 30.585938 -16.664062 30.039062 -16.5 29.28125 -16.5 L 17.578125 -16.5 L 17.578125 -11.34375 L 34.140625 -11.34375 C 34.898438 -11.34375 35.445312 -11.171875 35.78125 -10.828125 C 36.125 -10.484375 36.296875 -9.9375 36.296875 -9.1875 L 36.296875 -2.15625 C 36.296875 -1.394531 36.125 -0.84375 35.78125 -0.5 C 35.445312 -0.164062 34.898438 0 34.140625 0 Z M 34.140625 0 "/></g></g></g><g fill="#6a40c0" fill-opacity="1"><g transform="translate(202.085022, 269.006788)"><g><path d="M 19.796875 -30.59375 L 16.984375 -21.484375 L 26.40625 -21.484375 L 23.578125 -30.59375 C 23.421875 -30.957031 23.25 -31.21875 23.0625 -31.375 C 22.882812 -31.539062 22.675781 -31.625 22.4375 -31.625 L 20.9375 -31.625 C 20.695312 -31.625 20.488281 -31.539062 20.3125 -31.375 C 20.132812 -31.21875 19.960938 -30.957031 19.796875 -30.59375 Z M 16.375 -2.15625 C 16.375 -1.394531 16.203125 -0.84375 15.859375 -0.5 C 15.523438 -0.164062 14.976562 0 14.21875 0 L 5.40625 0 C 4.644531 0 4.09375 -0.164062 3.75 -0.5 C 3.40625 -0.84375 3.234375 -1.394531 3.234375 -2.15625 L 3.234375 -18 C 3.234375 -19.195312 3.421875 -20.578125 3.796875 -22.140625 C 4.179688 -23.703125 4.773438 -25.519531 5.578125 -27.59375 L 10.796875 -41.21875 C 11.035156 -41.894531 11.40625 -42.394531 11.90625 -42.71875 C 12.40625 -43.039062 13.054688 -43.203125 13.859375 -43.203125 L 30 -43.203125 C 30.757812 -43.203125 31.390625 -43.039062 31.890625 -42.71875 C 32.390625 -42.394531 32.757812 -41.894531 33 -41.21875 L 38.21875 -27.59375 C 39.019531 -25.519531 39.609375 -23.703125 39.984375 -22.140625 C 40.367188 -20.578125 40.5625 -19.195312 40.5625 -18 L 40.5625 -2.15625 C 40.5625 -1.394531 40.390625 -0.84375 40.046875 -0.5 C 39.710938 -0.164062 39.164062 0 38.40625 0 L 29.34375 0 C 28.539062 0 27.945312 -0.164062 27.5625 -0.5 C 27.1875 -0.84375 27 -1.394531 27 -2.15625 L 27 -10.5625 L 16.375 -10.5625 Z M 16.375 -2.15625 "/></g></g></g><g fill="#6a40c0" fill-opacity="1"><g transform="translate(245.88498, 269.006788)"><g><path d="M 24.1875 0 L 5.21875 0 C 4.457031 0 3.90625 -0.164062 3.5625 -0.5 C 3.226562 -0.84375 3.0625 -1.394531 3.0625 -2.15625 L 3.0625 -9.1875 C 3.0625 -9.9375 3.226562 -10.484375 3.5625 -10.828125 C 3.90625 -11.171875 4.457031 -11.34375 5.21875 -11.34375 L 21.359375 -11.34375 C 21.878906 -11.34375 22.269531 -11.507812 22.53125 -11.84375 C 22.789062 -12.1875 22.921875 -12.597656 22.921875 -13.078125 C 22.921875 -13.753906 22.789062 -14.253906 22.53125 -14.578125 C 22.269531 -14.898438 21.878906 -15.082031 21.359375 -15.125 L 12.359375 -16.375 C 9.554688 -16.78125 7.304688 -17.703125 5.609375 -19.140625 C 3.910156 -20.578125 3.0625 -22.976562 3.0625 -26.34375 L 3.0625 -32.640625 C 3.0625 -36.035156 4.160156 -38.644531 6.359375 -40.46875 C 8.554688 -42.289062 11.597656 -43.203125 15.484375 -43.203125 L 32.28125 -43.203125 C 33.039062 -43.203125 33.585938 -43.03125 33.921875 -42.6875 C 34.265625 -42.351562 34.4375 -41.804688 34.4375 -41.046875 L 34.4375 -33.90625 C 34.4375 -33.144531 34.265625 -32.59375 33.921875 -32.25 C 33.585938 -31.90625 33.039062 -31.734375 32.28125 -31.734375 L 18.296875 -31.734375 C 17.773438 -31.734375 17.375 -31.5625 17.09375 -31.21875 C 16.820312 -30.882812 16.6875 -30.457031 16.6875 -29.9375 C 16.6875 -29.414062 16.820312 -28.972656 17.09375 -28.609375 C 17.375 -28.253906 17.773438 -28.054688 18.296875 -28.015625 L 27.234375 -26.8125 C 30.035156 -26.414062 32.296875 -25.5 34.015625 -24.0625 C 35.734375 -22.625 36.59375 -20.222656 36.59375 -16.859375 L 36.59375 -10.5625 C 36.59375 -7.15625 35.484375 -4.539062 33.265625 -2.71875 C 31.046875 -0.90625 28.019531 0 24.1875 0 Z M 24.1875 0 "/></g></g></g><g fill="#6a40c0" fill-opacity="1"><g transform="translate(284.884955, 269.006788)"><g><path d="M 34.140625 0 L 6.296875 0 C 5.535156 0 4.984375 -0.164062 4.640625 -0.5 C 4.304688 -0.84375 4.140625 -1.394531 4.140625 -2.15625 L 4.140625 -41.046875 C 4.140625 -41.804688 4.304688 -42.351562 4.640625 -42.6875 C 4.984375 -43.03125 5.535156 -43.203125 6.296875 -43.203125 L 34.140625 -43.203125 C 34.898438 -43.203125 35.445312 -43.03125 35.78125 -42.6875 C 36.125 -42.351562 36.296875 -41.804688 36.296875 -41.046875 L 36.296875 -34.015625 C 36.296875 -33.253906 36.125 -32.703125 35.78125 -32.359375 C 35.445312 -32.023438 34.898438 -31.859375 34.140625 -31.859375 L 17.578125 -31.859375 L 17.578125 -27.234375 L 29.28125 -27.234375 C 30.039062 -27.234375 30.585938 -27.0625 30.921875 -26.71875 C 31.265625 -26.382812 31.4375 -25.835938 31.4375 -25.078125 L 31.4375 -18.65625 C 31.4375 -17.894531 31.265625 -17.34375 30.921875 -17 C 30.585938 -16.664062 30.039062 -16.5 29.28125 -16.5 L 17.578125 -16.5 L 17.578125 -11.34375 L 34.140625 -11.34375 C 34.898438 -11.34375 35.445312 -11.171875 35.78125 -10.828125 C 36.125 -10.484375 36.296875 -9.9375 36.296875 -9.1875 L 36.296875 -2.15625 C 36.296875 -1.394531 36.125 -0.84375 35.78125 -0.5 C 35.445312 -0.164062 34.898438 0 34.140625 0 Z M 34.140625 0 "/></g></g></g><g fill="#6a40c0" fill-opacity="1"><g transform="translate(324.124911, 269.006788)"><g><path d="M 17.40625 -15.71875 L 8.109375 -15.71875 C 7.347656 -15.71875 6.796875 -15.882812 6.453125 -16.21875 C 6.109375 -16.5625 5.914062 -17.113281 5.875 -17.875 L 4.984375 -41.046875 C 4.941406 -41.804688 5.078125 -42.351562 5.390625 -42.6875 C 5.710938 -43.03125 6.253906 -43.203125 7.015625 -43.203125 L 18.484375 -43.203125 C 19.242188 -43.203125 19.78125 -43.03125 20.09375 -42.6875 C 20.414062 -42.351562 20.554688 -41.804688 20.515625 -41.046875 L 19.6875 -17.875 C 19.644531 -17.113281 19.441406 -16.5625 19.078125 -16.21875 C 18.722656 -15.882812 18.164062 -15.71875 17.40625 -15.71875 Z M 18.296875 0 L 7.265625 0 C 6.503906 0 5.953125 -0.164062 5.609375 -0.5 C 5.273438 -0.84375 5.109375 -1.394531 5.109375 -2.15625 L 5.109375 -10.015625 C 5.109375 -10.773438 5.273438 -11.328125 5.609375 -11.671875 C 5.953125 -12.015625 6.503906 -12.1875 7.265625 -12.1875 L 18.296875 -12.1875 C 19.054688 -12.1875 19.609375 -12.015625 19.953125 -11.671875 C 20.296875 -11.328125 20.46875 -10.773438 20.46875 -10.015625 L 20.46875 -2.15625 C 20.46875 -1.394531 20.296875 -0.84375 19.953125 -0.5 C 19.609375 -0.164062 19.054688 0 18.296875 0 Z M 18.296875 0 "/></g></g></g><g fill="#6a40c0" fill-opacity="1"><g transform="translate(349.568884, 269.006788)"><g/></g></g><g fill="#ff0000" fill-opacity="1"><g transform="translate(168.507445, 176.657758)"><g><path d="M 40.734375 -11.34375 C 40.734375 -9.5 40.460938 -7.828125 39.921875 -6.328125 C 39.390625 -4.828125 38.429688 -3.546875 37.046875 -2.484375 C 35.671875 -1.429688 33.769531 -0.601562 31.34375 0 C 28.925781 0.601562 25.859375 0.90625 22.140625 0.90625 C 18.421875 0.90625 15.335938 0.601562 12.890625 0 C 10.453125 -0.601562 8.539062 -1.429688 7.15625 -2.484375 C 5.78125 -3.546875 4.820312 -4.828125 4.28125 -6.328125 C 3.75 -7.828125 3.484375 -9.5 3.484375 -11.34375 L 3.484375 -31.796875 C 3.484375 -33.640625 3.75 -35.3125 4.28125 -36.8125 C 4.820312 -38.3125 5.78125 -39.597656 7.15625 -40.671875 C 8.539062 -41.753906 10.453125 -42.59375 12.890625 -43.1875 C 15.335938 -43.789062 18.421875 -44.09375 22.140625 -44.09375 C 25.859375 -44.09375 28.925781 -43.789062 31.34375 -43.1875 C 33.769531 -42.59375 35.671875 -41.753906 37.046875 -40.671875 C 38.429688 -39.597656 39.390625 -38.3125 39.921875 -36.8125 C 40.460938 -35.3125 40.734375 -33.640625 40.734375 -31.796875 Z M 17.09375 -13.5 C 17.09375 -12.695312 17.394531 -12.023438 18 -11.484375 C 18.601562 -10.953125 19.984375 -10.6875 22.140625 -10.6875 C 24.296875 -10.6875 25.675781 -10.953125 26.28125 -11.484375 C 26.882812 -12.023438 27.1875 -12.695312 27.1875 -13.5 L 27.1875 -29.640625 C 27.1875 -30.398438 26.882812 -31.050781 26.28125 -31.59375 C 25.675781 -32.132812 24.296875 -32.40625 22.140625 -32.40625 C 19.984375 -32.40625 18.601562 -32.132812 18 -31.59375 C 17.394531 -31.050781 17.09375 -30.398438 17.09375 -29.640625 Z M 17.09375 -13.5 "/></g></g></g><g fill="#ff0000" fill-opacity="1"><g transform="translate(212.727401, 176.657758)"><g><path d="M 17.703125 -32.40625 L 17.703125 -24.71875 L 22.203125 -24.71875 C 23.242188 -24.71875 23.941406 -24.988281 24.296875 -25.53125 C 24.660156 -26.070312 24.84375 -26.742188 24.84375 -27.546875 L 24.84375 -29.578125 C 24.84375 -30.378906 24.660156 -31.050781 24.296875 -31.59375 C 23.941406 -32.132812 23.242188 -32.40625 22.203125 -32.40625 Z M 15.546875 0 L 6.296875 0 C 5.535156 0 4.984375 -0.164062 4.640625 -0.5 C 4.304688 -0.84375 4.140625 -1.394531 4.140625 -2.15625 L 4.140625 -41.046875 C 4.140625 -41.804688 4.304688 -42.351562 4.640625 -42.6875 C 4.984375 -43.03125 5.535156 -43.203125 6.296875 -43.203125 L 26.28125 -43.203125 C 30.757812 -43.203125 33.847656 -42.269531 35.546875 -40.40625 C 37.242188 -38.550781 38.09375 -36.144531 38.09375 -33.1875 L 38.09375 -30.421875 C 38.09375 -28.742188 37.84375 -27.3125 37.34375 -26.125 C 36.84375 -24.945312 35.972656 -24.097656 34.734375 -23.578125 C 36.898438 -23.335938 38.648438 -22.457031 39.984375 -20.9375 C 41.328125 -19.414062 42 -17.394531 42 -14.875 L 42 -2.15625 C 42 -1.394531 41.828125 -0.84375 41.484375 -0.5 C 41.148438 -0.164062 40.601562 0 39.84375 0 L 30.546875 0 C 29.785156 0 29.234375 -0.164062 28.890625 -0.5 C 28.546875 -0.84375 28.375 -1.394531 28.375 -2.15625 L 28.375 -11.34375 C 28.375 -12.21875 28.203125 -12.863281 27.859375 -13.28125 C 27.523438 -13.707031 26.9375 -13.921875 26.09375 -13.921875 L 17.703125 -13.921875 L 17.703125 -2.15625 C 17.703125 -1.394531 17.53125 -0.84375 17.1875 -0.5 C 16.851562 -0.164062 16.304688 0 15.546875 0 Z M 15.546875 0 "/></g></g></g><g fill="#ff0000" fill-opacity="1"><g transform="translate(257.307354, 176.657758)"><g><path d="M 24.1875 0 L 5.21875 0 C 4.457031 0 3.90625 -0.164062 3.5625 -0.5 C 3.226562 -0.84375 3.0625 -1.394531 3.0625 -2.15625 L 3.0625 -9.1875 C 3.0625 -9.9375 3.226562 -10.484375 3.5625 -10.828125 C 3.90625 -11.171875 4.457031 -11.34375 5.21875 -11.34375 L 21.359375 -11.34375 C 21.878906 -11.34375 22.269531 -11.507812 22.53125 -11.84375 C 22.789062 -12.1875 22.921875 -12.597656 22.921875 -13.078125 C 22.921875 -13.753906 22.789062 -14.253906 22.53125 -14.578125 C 22.269531 -14.898438 21.878906 -15.082031 21.359375 -15.125 L 12.359375 -16.375 C 9.554688 -16.78125 7.304688 -17.703125 5.609375 -19.140625 C 3.910156 -20.578125 3.0625 -22.976562 3.0625 -26.34375 L 3.0625 -32.640625 C 3.0625 -36.035156 4.160156 -38.644531 6.359375 -40.46875 C 8.554688 -42.289062 11.597656 -43.203125 15.484375 -43.203125 L 32.28125 -43.203125 C 33.039062 -43.203125 33.585938 -43.03125 33.921875 -42.6875 C 34.265625 -42.351562 34.4375 -41.804688 34.4375 -41.046875 L 34.4375 -33.90625 C 34.4375 -33.144531 34.265625 -32.59375 33.921875 -32.25 C 33.585938 -31.90625 33.039062 -31.734375 32.28125 -31.734375 L 18.296875 -31.734375 C 17.773438 -31.734375 17.375 -31.5625 17.09375 -31.21875 C 16.820312 -30.882812 16.6875 -30.457031 16.6875 -29.9375 C 16.6875 -29.414062 16.820312 -28.972656 17.09375 -28.609375 C 17.375 -28.253906 17.773438 -28.054688 18.296875 -28.015625 L 27.234375 -26.8125 C 30.035156 -26.414062 32.296875 -25.5 34.015625 -24.0625 C 35.734375 -22.625 36.59375 -20.222656 36.59375 -16.859375 L 36.59375 -10.5625 C 36.59375 -7.15625 35.484375 -4.539062 33.265625 -2.71875 C 31.046875 -0.90625 28.019531 0 24.1875 0 Z M 24.1875 0 "/></g></g></g><g fill="#ff0000" fill-opacity="1"><g transform="translate(296.307317, 176.657758)"><g><path d="M 34.140625 0 L 6.296875 0 C 5.535156 0 4.984375 -0.164062 4.640625 -0.5 C 4.304688 -0.84375 4.140625 -1.394531 4.140625 -2.15625 L 4.140625 -41.046875 C 4.140625 -41.804688 4.304688 -42.351562 4.640625 -42.6875 C 4.984375 -43.03125 5.535156 -43.203125 6.296875 -43.203125 L 34.140625 -43.203125 C 34.898438 -43.203125 35.445312 -43.03125 35.78125 -42.6875 C 36.125 -42.351562 36.296875 -41.804688 36.296875 -41.046875 L 36.296875 -34.015625 C 36.296875 -33.253906 36.125 -32.703125 35.78125 -32.359375 C 35.445312 -32.023438 34.898438 -31.859375 34.140625 -31.859375 L 17.578125 -31.859375 L 17.578125 -27.234375 L 29.28125 -27.234375 C 30.039062 -27.234375 30.585938 -27.0625 30.921875 -26.71875 C 31.265625 -26.382812 31.4375 -25.835938 31.4375 -25.078125 L 31.4375 -18.65625 C 31.4375 -17.894531 31.265625 -17.34375 30.921875 -17 C 30.585938 -16.664062 30.039062 -16.5 29.28125 -16.5 L 17.578125 -16.5 L 17.578125 -11.34375 L 34.140625 -11.34375 C 34.898438 -11.34375 35.445312 -11.171875 35.78125 -10.828125 C 36.125 -10.484375 36.296875 -9.9375 36.296875 -9.1875 L 36.296875 -2.15625 C 36.296875 -1.394531 36.125 -0.84375 35.78125 -0.5 C 35.445312 -0.164062 34.898438 0 34.140625 0 Z M 34.140625 0 "/></g></g></g><g fill="#00ffff" fill-opacity="1"><g transform="translate(171.633977, 173.742219)"><g><path d="M 40.734375 -11.34375 C 40.734375 -9.5 40.460938 -7.828125 39.921875 -6.328125 C 39.390625 -4.828125 38.429688 -3.546875 37.046875 -2.484375 C 35.671875 -1.429688 33.769531 -0.601562 31.34375 0 C 28.925781 0.601562 25.859375 0.90625 22.140625 0.90625 C 18.421875 0.90625 15.335938 0.601562 12.890625 0 C 10.453125 -0.601562 8.539062 -1.429688 7.15625 -2.484375 C 5.78125 -3.546875 4.820312 -4.828125 4.28125 -6.328125 C 3.75 -7.828125 3.484375 -9.5 3.484375 -11.34375 L 3.484375 -31.796875 C 3.484375 -33.640625 3.75 -35.3125 4.28125 -36.8125 C 4.820312 -38.3125 5.78125 -39.597656 7.15625 -40.671875 C 8.539062 -41.753906 10.453125 -42.59375 12.890625 -43.1875 C 15.335938 -43.789062 18.421875 -44.09375 22.140625 -44.09375 C 25.859375 -44.09375 28.925781 -43.789062 31.34375 -43.1875 C 33.769531 -42.59375 35.671875 -41.753906 37.046875 -40.671875 C 38.429688 -39.597656 39.390625 -38.3125 39.921875 -36.8125 C 40.460938 -35.3125 40.734375 -33.640625 40.734375 -31.796875 Z M 17.09375 -13.5 C 17.09375 -12.695312 17.394531 -12.023438 18 -11.484375 C 18.601562 -10.953125 19.984375 -10.6875 22.140625 -10.6875 C 24.296875 -10.6875 25.675781 -10.953125 26.28125 -11.484375 C 26.882812 -12.023438 27.1875 -12.695312 27.1875 -13.5 L 27.1875 -29.640625 C 27.1875 -30.398438 26.882812 -31.050781 26.28125 -31.59375 C 25.675781 -32.132812 24.296875 -32.40625 22.140625 -32.40625 C 19.984375 -32.40625 18.601562 -32.132812 18 -31.59375 C 17.394531 -31.050781 17.09375 -30.398438 17.09375 -29.640625 Z M 17.09375 -13.5 "/></g></g></g><g fill="#00ffff" fill-opacity="1"><g transform="translate(215.853934, 173.742219)"><g><path d="M 17.703125 -32.40625 L 17.703125 -24.71875 L 22.203125 -24.71875 C 23.242188 -24.71875 23.941406 -24.988281 24.296875 -25.53125 C 24.660156 -26.070312 24.84375 -26.742188 24.84375 -27.546875 L 24.84375 -29.578125 C 24.84375 -30.378906 24.660156 -31.050781 24.296875 -31.59375 C 23.941406 -32.132812 23.242188 -32.40625 22.203125 -32.40625 Z M 15.546875 0 L 6.296875 0 C 5.535156 0 4.984375 -0.164062 4.640625 -0.5 C 4.304688 -0.84375 4.140625 -1.394531 4.140625 -2.15625 L 4.140625 -41.046875 C 4.140625 -41.804688 4.304688 -42.351562 4.640625 -42.6875 C 4.984375 -43.03125 5.535156 -43.203125 6.296875 -43.203125 L 26.28125 -43.203125 C 30.757812 -43.203125 33.847656 -42.269531 35.546875 -40.40625 C 37.242188 -38.550781 38.09375 -36.144531 38.09375 -33.1875 L 38.09375 -30.421875 C 38.09375 -28.742188 37.84375 -27.3125 37.34375 -26.125 C 36.84375 -24.945312 35.972656 -24.097656 34.734375 -23.578125 C 36.898438 -23.335938 38.648438 -22.457031 39.984375 -20.9375 C 41.328125 -19.414062 42 -17.394531 42 -14.875 L 42 -2.15625 C 42 -1.394531 41.828125 -0.84375 41.484375 -0.5 C 41.148438 -0.164062 40.601562 0 39.84375 0 L 30.546875 0 C 29.785156 0 29.234375 -0.164062 28.890625 -0.5 C 28.546875 -0.84375 28.375 -1.394531 28.375 -2.15625 L 28.375 -11.34375 C 28.375 -12.21875 28.203125 -12.863281 27.859375 -13.28125 C 27.523438 -13.707031 26.9375 -13.921875 26.09375 -13.921875 L 17.703125 -13.921875 L 17.703125 -2.15625 C 17.703125 -1.394531 17.53125 -0.84375 17.1875 -0.5 C 16.851562 -0.164062 16.304688 0 15.546875 0 Z M 15.546875 0 "/></g></g></g><g fill="#00ffff" fill-opacity="1"><g transform="translate(260.433887, 173.742219)"><g><path d="M 24.1875 0 L 5.21875 0 C 4.457031 0 3.90625 -0.164062 3.5625 -0.5 C 3.226562 -0.84375 3.0625 -1.394531 3.0625 -2.15625 L 3.0625 -9.1875 C 3.0625 -9.9375 3.226562 -10.484375 3.5625 -10.828125 C 3.90625 -11.171875 4.457031 -11.34375 5.21875 -11.34375 L 21.359375 -11.34375 C 21.878906 -11.34375 22.269531 -11.507812 22.53125 -11.84375 C 22.789062 -12.1875 22.921875 -12.597656 22.921875 -13.078125 C 22.921875 -13.753906 22.789062 -14.253906 22.53125 -14.578125 C 22.269531 -14.898438 21.878906 -15.082031 21.359375 -15.125 L 12.359375 -16.375 C 9.554688 -16.78125 7.304688 -17.703125 5.609375 -19.140625 C 3.910156 -20.578125 3.0625 -22.976562 3.0625 -26.34375 L 3.0625 -32.640625 C 3.0625 -36.035156 4.160156 -38.644531 6.359375 -40.46875 C 8.554688 -42.289062 11.597656 -43.203125 15.484375 -43.203125 L 32.28125 -43.203125 C 33.039062 -43.203125 33.585938 -43.03125 33.921875 -42.6875 C 34.265625 -42.351562 34.4375 -41.804688 34.4375 -41.046875 L 34.4375 -33.90625 C 34.4375 -33.144531 34.265625 -32.59375 33.921875 -32.25 C 33.585938 -31.90625 33.039062 -31.734375 32.28125 -31.734375 L 18.296875 -31.734375 C 17.773438 -31.734375 17.375 -31.5625 17.09375 -31.21875 C 16.820312 -30.882812 16.6875 -30.457031 16.6875 -29.9375 C 16.6875 -29.414062 16.820312 -28.972656 17.09375 -28.609375 C 17.375 -28.253906 17.773438 -28.054688 18.296875 -28.015625 L 27.234375 -26.8125 C 30.035156 -26.414062 32.296875 -25.5 34.015625 -24.0625 C 35.734375 -22.625 36.59375 -20.222656 36.59375 -16.859375 L 36.59375 -10.5625 C 36.59375 -7.15625 35.484375 -4.539062 33.265625 -2.71875 C 31.046875 -0.90625 28.019531 0 24.1875 0 Z M 24.1875 0 "/></g></g></g><g fill="#00ffff" fill-opacity="1"><g transform="translate(299.43385, 173.742219)"><g><path d="M 34.140625 0 L 6.296875 0 C 5.535156 0 4.984375 -0.164062 4.640625 -0.5 C 4.304688 -0.84375 4.140625 -1.394531 4.140625 -2.15625 L 4.140625 -41.046875 C 4.140625 -41.804688 4.304688 -42.351562 4.640625 -42.6875 C 4.984375 -43.03125 5.535156 -43.203125 6.296875 -43.203125 L 34.140625 -43.203125 C 34.898438 -43.203125 35.445312 -43.03125 35.78125 -42.6875 C 36.125 -42.351562 36.296875 -41.804688 36.296875 -41.046875 L 36.296875 -34.015625 C 36.296875 -33.253906 36.125 -32.703125 35.78125 -32.359375 C 35.445312 -32.023438 34.898438 -31.859375 34.140625 -31.859375 L 17.578125 -31.859375 L 17.578125 -27.234375 L 29.28125 -27.234375 C 30.039062 -27.234375 30.585938 -27.0625 30.921875 -26.71875 C 31.265625 -26.382812 31.4375 -25.835938 31.4375 -25.078125 L 31.4375 -18.65625 C 31.4375 -17.894531 31.265625 -17.34375 30.921875 -17 C 30.585938 -16.664062 30.039062 -16.5 29.28125 -16.5 L 17.578125 -16.5 L 17.578125 -11.34375 L 34.140625 -11.34375 C 34.898438 -11.34375 35.445312 -11.171875 35.78125 -10.828125 C 36.125 -10.484375 36.296875 -9.9375 36.296875 -9.1875 L 36.296875 -2.15625 C 36.296875 -1.394531 36.125 -0.84375 35.78125 -0.5 C 35.445312 -0.164062 34.898438 0 34.140625 0 Z M 34.140625 0 "/></g></g></g><g fill="#ff0000" fill-opacity="1"><g transform="translate(335.558219, 176.657758)"><g/></g></g><g fill="#00ffff" fill-opacity="1"><g transform="translate(338.684751, 173.742219)"><g/></g></g><g fill="#39c638" fill-opacity="1"><g transform="translate(170.070711, 175.199988)"><g><path d="M 40.734375 -11.34375 C 40.734375 -9.5 40.460938 -7.828125 39.921875 -6.328125 C 39.390625 -4.828125 38.429688 -3.546875 37.046875 -2.484375 C 35.671875 -1.429688 33.769531 -0.601562 31.34375 0 C 28.925781 0.601562 25.859375 0.90625 22.140625 0.90625 C 18.421875 0.90625 15.335938 0.601562 12.890625 0 C 10.453125 -0.601562 8.539062 -1.429688 7.15625 -2.484375 C 5.78125 -3.546875 4.820312 -4.828125 4.28125 -6.328125 C 3.75 -7.828125 3.484375 -9.5 3.484375 -11.34375 L 3.484375 -31.796875 C 3.484375 -33.640625 3.75 -35.3125 4.28125 -36.8125 C 4.820312 -38.3125 5.78125 -39.597656 7.15625 -40.671875 C 8.539062 -41.753906 10.453125 -42.59375 12.890625 -43.1875 C 15.335938 -43.789062 18.421875 -44.09375 22.140625 -44.09375 C 25.859375 -44.09375 28.925781 -43.789062 31.34375 -43.1875 C 33.769531 -42.59375 35.671875 -41.753906 37.046875 -40.671875 C 38.429688 -39.597656 39.390625 -38.3125 39.921875 -36.8125 C 40.460938 -35.3125 40.734375 -33.640625 40.734375 -31.796875 Z M 17.09375 -13.5 C 17.09375 -12.695312 17.394531 -12.023438 18 -11.484375 C 18.601562 -10.953125 19.984375 -10.6875 22.140625 -10.6875 C 24.296875 -10.6875 25.675781 -10.953125 26.28125 -11.484375 C 26.882812 -12.023438 27.1875 -12.695312 27.1875 -13.5 L 27.1875 -29.640625 C 27.1875 -30.398438 26.882812 -31.050781 26.28125 -31.59375 C 25.675781 -32.132812 24.296875 -32.40625 22.140625 -32.40625 C 19.984375 -32.40625 18.601562 -32.132812 18 -31.59375 C 17.394531 -31.050781 17.09375 -30.398438 17.09375 -29.640625 Z M 17.09375 -13.5 "/></g></g></g><g fill="#39c638" fill-opacity="1"><g transform="translate(214.290668, 175.199988)"><g><path d="M 17.703125 -32.40625 L 17.703125 -24.71875 L 22.203125 -24.71875 C 23.242188 -24.71875 23.941406 -24.988281 24.296875 -25.53125 C 24.660156 -26.070312 24.84375 -26.742188 24.84375 -27.546875 L 24.84375 -29.578125 C 24.84375 -30.378906 24.660156 -31.050781 24.296875 -31.59375 C 23.941406 -32.132812 23.242188 -32.40625 22.203125 -32.40625 Z M 15.546875 0 L 6.296875 0 C 5.535156 0 4.984375 -0.164062 4.640625 -0.5 C 4.304688 -0.84375 4.140625 -1.394531 4.140625 -2.15625 L 4.140625 -41.046875 C 4.140625 -41.804688 4.304688 -42.351562 4.640625 -42.6875 C 4.984375 -43.03125 5.535156 -43.203125 6.296875 -43.203125 L 26.28125 -43.203125 C 30.757812 -43.203125 33.847656 -42.269531 35.546875 -40.40625 C 37.242188 -38.550781 38.09375 -36.144531 38.09375 -33.1875 L 38.09375 -30.421875 C 38.09375 -28.742188 37.84375 -27.3125 37.34375 -26.125 C 36.84375 -24.945312 35.972656 -24.097656 34.734375 -23.578125 C 36.898438 -23.335938 38.648438 -22.457031 39.984375 -20.9375 C 41.328125 -19.414062 42 -17.394531 42 -14.875 L 42 -2.15625 C 42 -1.394531 41.828125 -0.84375 41.484375 -0.5 C 41.148438 -0.164062 40.601562 0 39.84375 0 L 30.546875 0 C 29.785156 0 29.234375 -0.164062 28.890625 -0.5 C 28.546875 -0.84375 28.375 -1.394531 28.375 -2.15625 L 28.375 -11.34375 C 28.375 -12.21875 28.203125 -12.863281 27.859375 -13.28125 C 27.523438 -13.707031 26.9375 -13.921875 26.09375 -13.921875 L 17.703125 -13.921875 L 17.703125 -2.15625 C 17.703125 -1.394531 17.53125 -0.84375 17.1875 -0.5 C 16.851562 -0.164062 16.304688 0 15.546875 0 Z M 15.546875 0 "/></g></g></g><g fill="#39c638" fill-opacity="1"><g transform="translate(258.87062, 175.199988)"><g><path d="M 24.1875 0 L 5.21875 0 C 4.457031 0 3.90625 -0.164062 3.5625 -0.5 C 3.226562 -0.84375 3.0625 -1.394531 3.0625 -2.15625 L 3.0625 -9.1875 C 3.0625 -9.9375 3.226562 -10.484375 3.5625 -10.828125 C 3.90625 -11.171875 4.457031 -11.34375 5.21875 -11.34375 L 21.359375 -11.34375 C 21.878906 -11.34375 22.269531 -11.507812 22.53125 -11.84375 C 22.789062 -12.1875 22.921875 -12.597656 22.921875 -13.078125 C 22.921875 -13.753906 22.789062 -14.253906 22.53125 -14.578125 C 22.269531 -14.898438 21.878906 -15.082031 21.359375 -15.125 L 12.359375 -16.375 C 9.554688 -16.78125 7.304688 -17.703125 5.609375 -19.140625 C 3.910156 -20.578125 3.0625 -22.976562 3.0625 -26.34375 L 3.0625 -32.640625 C 3.0625 -36.035156 4.160156 -38.644531 6.359375 -40.46875 C 8.554688 -42.289062 11.597656 -43.203125 15.484375 -43.203125 L 32.28125 -43.203125 C 33.039062 -43.203125 33.585938 -43.03125 33.921875 -42.6875 C 34.265625 -42.351562 34.4375 -41.804688 34.4375 -41.046875 L 34.4375 -33.90625 C 34.4375 -33.144531 34.265625 -32.59375 33.921875 -32.25 C 33.585938 -31.90625 33.039062 -31.734375 32.28125 -31.734375 L 18.296875 -31.734375 C 17.773438 -31.734375 17.375 -31.5625 17.09375 -31.21875 C 16.820312 -30.882812 16.6875 -30.457031 16.6875 -29.9375 C 16.6875 -29.414062 16.820312 -28.972656 17.09375 -28.609375 C 17.375 -28.253906 17.773438 -28.054688 18.296875 -28.015625 L 27.234375 -26.8125 C 30.035156 -26.414062 32.296875 -25.5 34.015625 -24.0625 C 35.734375 -22.625 36.59375 -20.222656 36.59375 -16.859375 L 36.59375 -10.5625 C 36.59375 -7.15625 35.484375 -4.539062 33.265625 -2.71875 C 31.046875 -0.90625 28.019531 0 24.1875 0 Z M 24.1875 0 "/></g></g></g><g fill="#39c638" fill-opacity="1"><g transform="translate(297.870583, 175.199988)"><g><path d="M 34.140625 0 L 6.296875 0 C 5.535156 0 4.984375 -0.164062 4.640625 -0.5 C 4.304688 -0.84375 4.140625 -1.394531 4.140625 -2.15625 L 4.140625 -41.046875 C 4.140625 -41.804688 4.304688 -42.351562 4.640625 -42.6875 C 4.984375 -43.03125 5.535156 -43.203125 6.296875 -43.203125 L 34.140625 -43.203125 C 34.898438 -43.203125 35.445312 -43.03125 35.78125 -42.6875 C 36.125 -42.351562 36.296875 -41.804688 36.296875 -41.046875 L 36.296875 -34.015625 C 36.296875 -33.253906 36.125 -32.703125 35.78125 -32.359375 C 35.445312 -32.023438 34.898438 -31.859375 34.140625 -31.859375 L 17.578125 -31.859375 L 17.578125 -27.234375 L 29.28125 -27.234375 C 30.039062 -27.234375 30.585938 -27.0625 30.921875 -26.71875 C 31.265625 -26.382812 31.4375 -25.835938 31.4375 -25.078125 L 31.4375 -18.65625 C 31.4375 -17.894531 31.265625 -17.34375 30.921875 -17 C 30.585938 -16.664062 30.039062 -16.5 29.28125 -16.5 L 17.578125 -16.5 L 17.578125 -11.34375 L 34.140625 -11.34375 C 34.898438 -11.34375 35.445312 -11.171875 35.78125 -10.828125 C 36.125 -10.484375 36.296875 -9.9375 36.296875 -9.1875 L 36.296875 -2.15625 C 36.296875 -1.394531 36.125 -0.84375 35.78125 -0.5 C 35.445312 -0.164062 34.898438 0 34.140625 0 Z M 34.140625 0 "/></g></g></g><g fill="#39c638" fill-opacity="1"><g transform="translate(337.121485, 175.199988)"><g/></g></g></svg>